<svg height="512pt" viewBox="0 0 512 512.001" width="512pt" xmlns="http://www.w3.org/2000/svg"><path d="m81.882812 431.449219c3.957032 3.304687 8.074219 6.515625 12.246094 9.542969l8.828125-12.160157c-3.894531-2.828125-7.746093-5.828125-11.441406-8.914062zm0 0"/><path d="m98.839844 87.15625-9.117188-11.945312c-4.101562 3.132812-8.144531 6.441406-12.019531 9.839843l9.90625 11.296875c3.621094-3.171875 7.398437-6.265625 11.230469-9.191406zm0 0"/><path d="m15.027344 256.460938c0-56.675782 22.019531-110.007813 62-150.175782l-10.648438-10.601562c-42.804687 43.003906-66.378906 100.101562-66.378906 160.777344 0 31.636718 6.363281 62.265624 18.910156 91.035156 12.117188 27.78125 29.410156 52.546875 51.398438 73.597656l10.390625-10.851562c-42.347657-40.550782-65.671875-95.164063-65.671875-153.78125zm0 0"/><path d="m340.070312 145.582031c-29.90625-30.246093-69.738281-46.90625-112.160156-46.90625-87 0-157.785156 70.785157-157.785156 157.785157 0 87.003906 70.785156 157.785156 157.785156 157.785156 87.003906 0 157.785156-70.78125 157.785156-157.785156 0-35.960938-12.46875-71.167969-35.113281-99.132813l-11.675781 9.457031c20.480469 25.300782 31.761719 57.148438 31.761719 89.675782 0 78.71875-64.039063 142.757812-142.757813 142.757812-78.714844 0-142.757812-64.039062-142.757812-142.757812 0-78.714844 64.042968-142.753907 142.757812-142.753907 38.375 0 74.414063 15.074219 101.472656 42.441407zm0 0"/><path d="m135.242188 256.460938c0 51.097656 41.570312 92.667968 92.667968 92.667968s92.667969-41.570312 92.667969-92.667968c0-51.097657-41.570313-92.664063-92.667969-92.664063s-92.667968 41.566406-92.667968 92.664063zm170.308593 0c0 42.8125-34.828125 77.640624-77.640625 77.640624-42.808594 0-77.640625-34.828124-77.640625-77.640624 0-42.808594 34.832031-77.640626 77.640625-77.640626 42.8125 0 77.640625 34.832032 77.640625 77.640626zm0 0"/><path d="m195.351562 256.460938c0 17.953124 14.605469 32.558593 32.558594 32.558593s32.558594-14.605469 32.558594-32.558593c0-17.953126-14.605469-32.558594-32.558594-32.558594s-32.558594 14.605468-32.558594 32.558594zm50.089844 0c0 9.667968-7.863281 17.53125-17.53125 17.53125-9.664062 0-17.53125-7.863282-17.53125-17.53125 0-9.664063 7.867188-17.53125 17.53125-17.53125 9.667969 0 17.53125 7.867187 17.53125 17.53125zm0 0"/><path d="m461.832031 364.578125v-69.046875h-15.027343v148.769531h-25.042969v-199.359375h25.042969v35.5625h15.027343v-35.5625h15.027344v-105.191406h-15.027344v-42.679688l-20.035156-20.039062v-77.03125h-15.027344v77.03125l-20.035156 20.039062v18.140626c-18.425781-23.277344-41.3125-42.921876-67.210937-57.5-33.894532-19.078126-72.488282-29.160157-111.613282-29.160157-44.855468 0-88.261718 13.019531-125.523437 37.65625l8.285156 12.535157c34.800781-23.003907 75.339844-35.164063 117.238281-35.164063 72.199219 0 138.46875 35.894531 178.03125 96.171875h-14.234375v105.191406h15.027344v119.636719l-50.089844 20.035156v41.40625c-37.246093 28.355469-81.675781 43.324219-128.734375 43.324219-40.089844.003906-79.140625-11.199219-112.9375-32.390625l-7.984375 12.730469c36.191407 22.695312 78.003907 34.691406 120.921875 34.6875 46.605469 0 90.800782-13.714844 128.734375-39.800782v67.429688l65.117188-26.046875v-26.625h25.042969v26.625l65.117187 26.046875v-127.386719zm-55.097656-134.664063v-15.027343h55.097656v15.027343zm55.097656-75.136718v15.027344h-55.097656v-15.027344zm0 30.054687v15.027344h-55.097656v-15.027344zm-27.550781-94.0625 12.523438 12.523438v36.457031h-25.042969v-36.457031zm-27.546875 385.007813-35.066406 14.027344v-95.015626l35.066406-14.023437zm90.160156 14.027344-35.0625-14.027344v-95.011719l35.0625 14.023437zm0 0"/><path d="m358.777344 128.914062c-3.351563-3.433593-6.875-6.777343-10.472656-9.933593l9.90625-11.296875c3.894531 3.410156 7.703124 7.027344 11.324218 10.742187zm-21.691406-19.019531c-3.84375-2.867187-7.84375-5.621093-11.894532-8.175781l8.019532-12.707031c4.382812 2.761719 8.710937 5.738281 12.867187 8.84375zm-24.390626-15.386719c-8.371093-4.402343-17.152343-8.175781-26.09375-11.214843l4.835938-14.226563c9.683594 3.289063 19.1875 7.375 28.25 12.140625zm0 0"/><path d="m102.679688 409.539062c-4.007813-3.285156-7.9375-6.769531-11.679688-10.359374l10.40625-10.84375c3.460938 3.320312 7.09375 6.542968 10.796875 9.582031zm-22.511719-21.601562c-6.914063-7.761719-13.261719-16.125-18.867188-24.859375l12.644531-8.117187c5.183594 8.070312 11.050782 15.804687 17.445313 22.980468zm0 0"/></svg>