<?xml version="1.0" encoding="iso-8859-1"?>
<!-- Generator: Adobe Illustrator 19.0.0, SVG Export Plug-In . SVG Version: 6.00 Build 0)  -->
<svg version="1.1" id="Capa_1" xmlns="http://www.w3.org/2000/svg" xmlns:xlink="http://www.w3.org/1999/xlink" x="0px" y="0px"
	 viewBox="0 0 511.925 511.925" style="enable-background:new 0 0 511.925 511.925;" xml:space="preserve">
<g>
	<g>
		<path d="M102.657,437.547c-1.563-1.562-4.094-1.562-5.656,0l-16.95,16.966c-1.562,1.562-1.562,4.093,0,5.655
			c0.782,0.781,1.805,1.172,2.828,1.172c1.022,0,2.046-0.391,2.827-1.172l16.951-16.966
			C104.219,441.64,104.219,439.109,102.657,437.547z"/>
	</g>
</g>
<g>
	<g>
		<path d="M68.724,414.925c-1.562-1.562-4.093-1.562-5.655,0L51.75,426.236c-1.562,1.562-1.562,4.093,0,5.655
			c0.781,0.781,1.805,1.172,2.828,1.172s2.047-0.391,2.827-1.172l11.319-11.311C70.286,419.018,70.286,416.487,68.724,414.925z"/>
	</g>
</g>
<g>
	<g>
		<path d="M255.978,284.241l-28.285-28.297c-1.562-1.562-4.093-1.562-5.655,0s-1.562,4.093,0,5.655l28.285,28.297
			c0.781,0.781,1.804,1.172,2.827,1.172s2.046-0.39,2.828-1.172C257.54,288.334,257.54,285.803,255.978,284.241z"/>
	</g>
</g>
<g>
	<g>
		<path d="M231.785,238.01c-2.085-0.68-4.351,0.437-5.062,2.531l-5.655,16.966c-0.696,2.094,0.437,4.359,2.531,5.062
			c0.422,0.141,0.844,0.203,1.266,0.203c1.672,0,3.234-1.063,3.796-2.733l5.655-16.967
			C235.011,240.979,233.878,238.713,231.785,238.01z"/>
	</g>
</g>
<g>
	<g>
		<path d="M273.913,280.132c-0.704-2.109-2.968-3.234-5.062-2.531l-16.966,5.671c-2.093,0.704-3.226,2.969-2.531,5.062
			c0.563,1.672,2.125,2.734,3.796,2.734c0.421,0,0.843-0.062,1.266-0.203l16.967-5.671
			C273.475,284.49,274.608,282.225,273.913,280.132z"/>
	</g>
</g>
<g>
	<g>
		<path d="M272.943,278.571l-39.596-39.592c-1.562-1.562-4.093-1.562-5.655,0c-1.562,1.562-1.562,4.093,0,5.655l39.596,39.592
			c0.781,0.781,1.805,1.172,2.828,1.172c1.024,0,2.047-0.391,2.827-1.172C274.505,282.664,274.505,280.133,272.943,278.571z"/>
	</g>
</g>
<g>
	<g>
		<path d="M80.09,460.121l-28.27-28.277c-1.562-1.562-4.093-1.562-5.655,0c-1.562,1.562-1.562,4.094,0,5.656l28.27,28.276
			c0.781,0.781,1.804,1.172,2.827,1.172s2.047-0.39,2.828-1.172C81.652,464.215,81.652,461.683,80.09,460.121z"/>
	</g>
</g>
<g>
	<g>
		<path d="M78.528,459.153c-2.078-0.688-4.359,0.437-5.062,2.531l-5.655,16.95c-0.696,2.094,0.437,4.359,2.53,5.062
			c0.422,0.141,0.844,0.203,1.266,0.203c1.671,0,3.234-1.063,3.796-2.734l5.656-16.95C81.754,462.122,80.622,459.856,78.528,459.153
			z"/>
	</g>
</g>
<g>
	<g>
		<path d="M52.79,433.406c-0.704-2.093-2.969-3.233-5.062-2.531l-16.982,5.656c-2.093,0.704-3.226,2.953-2.531,5.062
			c0.563,1.671,2.117,2.733,3.796,2.733c0.422,0,0.844-0.062,1.266-0.204l16.982-5.654C52.352,437.765,53.485,435.5,52.79,433.406z"
			/>
	</g>
</g>
<g>
	<g>
		<path d="M74.435,477.073l-39.596-39.572c-1.562-1.562-4.093-1.562-5.655,0c-1.562,1.561-1.562,4.093,0,5.655l39.595,39.571
			c0.782,0.781,1.805,1.172,2.828,1.172s2.046-0.391,2.828-1.172C75.997,481.166,75.997,478.635,74.435,477.073z"/>
	</g>
</g>
<g>
	<g>
		<path d="M255.977,227.668c-1.562-1.562-4.093-1.562-5.655,0l-11.319,11.311c-1.562,1.562-1.562,4.093,0,5.655
			c0.781,0.781,1.805,1.172,2.828,1.172c1.024,0,2.047-0.391,2.827-1.172l11.319-11.311
			C257.539,231.761,257.539,229.23,255.977,227.668z"/>
	</g>
</g>
<g>
	<g>
		<path d="M284.255,255.945c-1.562-1.562-4.094-1.562-5.656,0l-11.311,11.315c-1.562,1.562-1.562,4.093,0,5.655
			c0.781,0.781,1.805,1.171,2.828,1.171c1.024,0,2.047-0.39,2.827-1.171l11.312-11.315
			C285.817,260.039,285.817,257.507,284.255,255.945z"/>
	</g>
</g>
<g>
	<g>
		<path d="M254.798,224.84c0-1.062,0.422-2.07,1.18-2.828c1.562-1.553,1.562-4.085,0-5.655c-1.562-1.562-4.093-1.562-5.655,0
			c-2.273,2.265-3.523,5.281-3.523,8.483c0,3.203,1.25,6.217,3.523,8.483c0.781,0.781,1.804,1.172,2.827,1.172
			s2.046-0.39,2.828-1.172c1.562-1.57,1.562-4.101,0-5.655C255.22,226.91,254.798,225.902,254.798,224.84z"/>
	</g>
</g>
<g>
	<g>
		<path d="M295.557,255.967c-1.562-1.562-4.093-1.562-5.655,0c-1.531,1.539-4.085,1.532-5.647-0.023
			c-1.562-1.562-4.094-1.562-5.656,0c-1.562,1.57-1.562,4.101,0,5.655c2.352,2.344,5.43,3.52,8.499,3.52
			c3.07,0,6.124-1.168,8.459-3.497C297.119,260.069,297.119,257.537,295.557,255.967z"/>
	</g>
</g>
<g>
	<g>
		<path d="M261.633,233.323l-5.655-5.655c-1.562-1.562-4.093-1.562-5.655,0c-1.562,1.561-1.562,4.093,0,5.655l5.655,5.655
			c0.781,0.781,1.805,1.172,2.828,1.172c1.022,0,2.046-0.39,2.827-1.172C263.195,237.416,263.195,234.885,261.633,233.323z"/>
	</g>
</g>
<g>
	<g>
		<path d="M284.255,255.945l-5.656-5.655c-1.561-1.562-4.093-1.562-5.655,0s-1.562,4.093,0,5.655l5.655,5.655
			c0.781,0.781,1.805,1.172,2.828,1.172s2.047-0.391,2.828-1.172C285.817,260.039,285.817,257.507,284.255,255.945z"/>
	</g>
</g>
<g>
	<g>
		<path d="M301.221,250.305c-1.562-1.562-4.093-1.562-5.655,0l-5.663,5.663c-1.562,1.562-1.562,4.093,0,5.655
			c0.78,0.781,1.804,1.172,2.827,1.172s2.046-0.391,2.828-1.172l5.663-5.663C302.783,254.398,302.783,251.867,301.221,250.305z"/>
	</g>
</g>
<g>
	<g>
		<path d="M261.633,210.702c-1.562-1.562-4.093-1.562-5.655,0l-5.655,5.655c-1.562,1.562-1.562,4.093,0,5.655
			c0.781,0.781,1.804,1.172,2.827,1.172s2.046-0.391,2.828-1.172l5.655-5.655C263.195,214.796,263.195,212.264,261.633,210.702z"/>
	</g>
</g>
<g>
	<g>
		<path d="M340.824,29.697c-1.562-1.562-4.093-1.562-5.655,0L188.105,176.769c-1.562,1.562-1.562,4.094,0,5.656
			c0.781,0.78,1.805,1.171,2.828,1.171c1.023,0,2.046-0.391,2.827-1.171L340.824,35.352
			C342.386,33.79,342.386,31.259,340.824,29.697z"/>
	</g>
</g>
<g>
	<g>
		<path d="M237.16,187.01l-45.259-11.295c-2.172-0.531-4.32,0.772-4.851,2.913s0.773,4.312,2.914,4.851l45.259,11.296
			c0.328,0.078,0.649,0.117,0.969,0.117c1.796,0,3.429-1.211,3.881-3.031C240.604,189.72,239.3,187.549,237.16,187.01z"/>
	</g>
</g>
<g>
	<g>
		<path d="M353.19,76.808L342.004,31.44c-0.524-2.141-2.641-3.461-4.843-2.922c-2.141,0.531-3.453,2.696-2.922,4.843l11.186,45.368
			c0.445,1.82,2.086,3.039,3.883,3.039c0.312,0,0.633-0.039,0.961-0.117C352.409,81.12,353.721,78.955,353.19,76.808z"/>
	</g>
</g>
<g>
	<g>
		<path d="M194.431,177.652l-28.284-50.914c-1.078-1.93-3.524-2.602-5.445-1.555c-1.929,1.078-2.624,3.507-1.554,5.444
			l28.285,50.915c0.734,1.312,2.102,2.054,3.5,2.054c0.664,0,1.328-0.164,1.944-0.5C194.806,182.019,195.501,179.59,194.431,177.652
			z"/>
	</g>
</g>
<g>
	<g>
		<path d="M289.926,1.186c-1.562-1.562-4.093-1.562-5.655,0L159.82,125.855c-1.562,1.562-1.562,4.101,0,5.655
			c0.782,0.781,1.805,1.172,2.828,1.172s2.046-0.391,2.828-1.172L289.926,6.841C291.488,5.28,291.488,2.741,289.926,1.186z"/>
	</g>
</g>
<g>
	<g>
		<path d="M339.949,29.034L289.051,0.522c-1.922-1.069-4.366-0.399-5.444,1.539c-1.078,1.922-0.391,4.359,1.539,5.444l50.898,28.511
			c0.617,0.344,1.289,0.508,1.952,0.508c1.399,0,2.758-0.734,3.492-2.046C342.565,32.557,341.879,30.12,339.949,29.034z"/>
	</g>
</g>
<g>
	<g>
		<path d="M267.296,216.341l-28.277-28.276c-1.562-1.562-4.094-1.562-5.656,0c-1.562,1.561-1.562,4.093,0,5.655l28.278,28.276
			c0.781,0.781,1.805,1.172,2.827,1.172c1.023,0,2.047-0.391,2.828-1.172C268.858,220.435,268.858,217.903,267.296,216.341z"/>
	</g>
</g>
<g>
	<g>
		<path d="M171.154,108.896c-1.563-1.57-1.57-4.109-0.008-5.663s1.562-4.086,0-5.655c-1.562-1.562-4.093-1.562-5.655,0
			c-4.672,4.655-4.679,12.271-0.008,16.958c0.781,0.789,1.812,1.18,2.835,1.18c1.024,0,2.04-0.391,2.82-1.165
			C172.709,112.989,172.709,110.458,171.154,108.896z"/>
	</g>
</g>
<g>
	<g>
		<path d="M272.952,7.075c-4.671-4.671-12.295-4.671-16.966,0c-1.562,1.562-1.562,4.094,0,5.656s4.093,1.562,5.655,0
			s4.093-1.562,5.655,0c0.781,0.78,1.805,1.171,2.828,1.171c1.024,0,2.047-0.39,2.828-1.171
			C274.514,11.169,274.514,8.637,272.952,7.075z"/>
	</g>
</g>
<g>
	<g>
		<path d="M261.64,7.075c-1.562-1.562-4.093-1.562-5.655,0l-90.494,90.503c-1.562,1.561-1.562,4.093,0,5.655
			c0.781,0.781,1.804,1.171,2.827,1.171c1.024,0,2.047-0.389,2.828-1.171l90.494-90.502C263.202,11.169,263.202,8.637,261.64,7.075z
			"/>
	</g>
</g>
<g>
	<g>
		<path d="M482.224,171.098c-1.561-1.562-4.093-1.562-5.655,0L329.497,318.174c-1.562,1.562-1.562,4.093,0,5.655
			c0.781,0.781,1.805,1.172,2.828,1.172c1.024,0,2.047-0.391,2.828-1.172l147.071-147.076
			C483.786,175.192,483.786,172.66,482.224,171.098z"/>
	</g>
</g>
<g>
	<g>
		<path d="M336.208,320.034l-11.304-45.275c-0.539-2.155-2.703-3.452-4.851-2.921c-2.141,0.546-3.445,2.717-2.914,4.858
			l11.304,45.274c0.453,1.828,2.085,3.031,3.882,3.031c0.321,0,0.641-0.031,0.969-0.109
			C335.435,324.346,336.739,322.174,336.208,320.034z"/>
	</g>
</g>
<g>
	<g>
		<path d="M480.484,169.918l-45.369-11.186c-2.218-0.531-4.32,0.789-4.843,2.922c-0.531,2.148,0.781,4.312,2.922,4.843
			l45.368,11.186c0.328,0.078,0.649,0.117,0.961,0.117c1.795,0,3.436-1.219,3.882-3.038
			C483.936,172.613,482.624,170.449,480.484,169.918z"/>
	</g>
</g>
<g>
	<g>
		<path d="M385.184,345.779l-50.914-28.277c-1.922-1.047-4.367-0.391-5.444,1.562c-1.07,1.938-0.375,4.359,1.554,5.437
			l50.915,28.276c0.616,0.344,1.28,0.5,1.944,0.5c1.399,0,2.766-0.734,3.5-2.046C387.809,349.294,387.114,346.857,385.184,345.779z"
			/>
	</g>
</g>
<g>
	<g>
		<path d="M510.752,221.996c-1.562-1.562-4.093-1.562-5.655,0L380.412,346.451c-1.562,1.561-1.562,4.093,0,5.655
			c0.781,0.78,1.804,1.171,2.827,1.171c1.024,0,2.047-0.39,2.828-1.17l124.685-124.455
			C512.314,226.098,512.314,223.558,510.752,221.996z"/>
	</g>
</g>
<g>
	<g>
		<path d="M511.416,222.871l-28.527-50.898c-1.086-1.937-3.522-2.601-5.444-1.539c-1.93,1.086-2.617,3.523-1.539,5.445
			l28.527,50.898c0.734,1.313,2.094,2.046,3.491,2.046c0.664,0,1.336-0.164,1.953-0.508
			C511.807,227.23,512.493,224.793,511.416,222.871z"/>
	</g>
</g>
<g>
	<g>
		<path d="M323.851,272.9l-28.27-28.266c-1.562-1.562-4.093-1.562-5.655,0s-1.562,4.093,0,5.655l28.269,28.266
			c0.781,0.781,1.805,1.172,2.828,1.172s2.046-0.391,2.828-1.172C325.413,276.993,325.413,274.462,323.851,272.9z"/>
	</g>
</g>
<g>
	<g>
		<path d="M414.352,340.779c-1.562-1.562-4.094-1.562-5.656,0c-1.514,1.516-4.139,1.516-5.655,0c-1.561-1.562-4.093-1.562-5.655,0
			c-1.562,1.547-1.562,4.078,0,5.656c2.265,2.265,5.281,3.515,8.483,3.515c3.202,0,6.218-1.25,8.483-3.515
			C415.914,344.857,415.914,342.326,414.352,340.779z"/>
	</g>
</g>
<g>
	<g>
		<path d="M504.847,238.972c-1.562-1.562-4.094-1.562-5.656,0s-1.562,4.093,0,5.655c0.758,0.758,1.18,1.766,1.18,2.828
			c0,1.061-0.422,2.061-1.18,2.819c-1.562,1.554-1.562,4.085,0,5.655c0.781,0.781,1.805,1.172,2.828,1.172s2.047-0.391,2.828-1.171
			c2.264-2.257,3.514-5.273,3.522-8.467C508.369,244.26,507.119,241.245,504.847,238.972z"/>
	</g>
</g>
<g>
	<g>
		<path d="M504.847,250.274c-1.562-1.562-4.094-1.562-5.656,0l-90.494,90.506c-1.562,1.562-1.562,4.094,0,5.656
			c0.781,0.781,1.805,1.171,2.828,1.171s2.046-0.39,2.828-1.171l90.494-90.507C506.409,254.367,506.409,251.836,504.847,250.274z"/>
	</g>
</g>
<g>
	<g>
		<path d="M414.369,97.571c-4.532-4.531-10.562-7.022-16.975-7.022h-0.008c-6.413,0-12.444,2.499-16.966,7.03
			c-1.562,1.561-1.562,4.1,0,5.655c1.561,1.562,4.093,1.562,5.655,0c6.031-6.054,16.592-6.03,22.637-0.008
			c6.234,6.233,6.234,16.388-0.008,22.629c-1.562,1.562-1.562,4.093,0,5.655c0.781,0.781,1.805,1.172,2.828,1.172
			c1.024,0,2.047-0.391,2.829-1.172C423.719,122.153,423.726,106.928,414.369,97.571z"/>
	</g>
</g>
<g>
	<g>
		<path d="M436.981,159.787L352.134,74.94c-1.562-1.562-4.093-1.562-5.655,0c-1.562,1.562-1.562,4.093,0,5.655l84.847,84.847
			c0.781,0.781,1.805,1.172,2.827,1.172c1.024,0,2.047-0.39,2.828-1.172C438.543,163.88,438.543,161.349,436.981,159.787z"/>
	</g>
</g>
<g>
	<g>
		<path d="M374.765,142.806c-9.82-9.812-22.88-15.217-36.761-15.217c-13.896,0-26.956,5.405-36.768,15.232
			c-9.82,9.811-15.225,22.863-15.225,36.752c0,13.889,5.406,26.95,15.225,36.768c9.812,9.82,22.864,15.225,36.752,15.225
			c13.889,0,26.95-5.406,36.777-15.225C395.027,196.071,395.027,163.083,374.765,142.806z M369.109,210.686
			c-8.31,8.304-19.363,12.881-31.12,12.881c-11.748,0-22.793-4.577-31.097-12.881c-8.304-8.311-12.881-19.364-12.881-31.112
			c0-11.756,4.569-22.794,12.881-31.097c8.303-8.312,19.356-12.889,31.112-12.889c11.749,0,22.794,4.569,31.105,12.873
			C386.255,165.623,386.255,193.533,369.109,210.686z"/>
	</g>
</g>
<g>
	<g>
		<path d="M197.869,124.871c-2.094-0.68-4.359,0.429-5.062,2.531l-5.671,16.997c-0.695,2.093,0.437,4.359,2.531,5.062
			c0.422,0.141,0.844,0.203,1.266,0.203c1.671,0,3.233-1.055,3.796-2.734l5.671-16.997
			C201.095,127.84,199.962,125.574,197.869,124.871z"/>
	</g>
</g>
<g>
	<g>
		<path d="M217.367,121.762c-0.703-2.086-2.937-3.242-5.062-2.531l-16.966,5.64c-2.093,0.695-3.226,2.96-2.531,5.062
			c0.562,1.671,2.116,2.733,3.796,2.733c0.414,0,0.843-0.062,1.266-0.202l16.966-5.64
			C216.929,126.128,218.062,123.864,217.367,121.762z"/>
	</g>
</g>
<g>
	<g>
		<path d="M220.482,102.256c-2.101-0.711-4.359,0.437-5.062,2.53l-5.647,16.975c-0.695,2.102,0.438,4.367,2.531,5.062
			c0.422,0.141,0.844,0.203,1.266,0.203c1.679,0,3.234-1.062,3.796-2.734l5.647-16.974
			C223.709,105.216,222.576,102.951,220.482,102.256z"/>
	</g>
</g>
<g>
	<g>
		<path d="M239.995,99.124c-0.703-2.092-2.953-3.225-5.062-2.53l-16.981,5.663c-2.093,0.704-3.226,2.968-2.531,5.062
			c0.562,1.672,2.125,2.734,3.796,2.734c0.422,0,0.844-0.063,1.266-0.204l16.982-5.663
			C239.558,103.483,240.69,101.218,239.995,99.124z"/>
	</g>
</g>
<g>
	<g>
		<path d="M243.12,79.628c-2.086-0.68-4.351,0.437-5.062,2.531l-5.663,16.981c-0.695,2.093,0.438,4.359,2.531,5.062
			c0.422,0.14,0.844,0.202,1.266,0.202c1.671,0,3.233-1.061,3.795-2.733l5.664-16.981C246.346,82.597,245.213,80.331,243.12,79.628z
			"/>
	</g>
</g>
<g>
	<g>
		<path d="M262.627,76.504c-0.704-2.093-2.969-3.219-5.062-2.531l-16.975,5.655c-2.093,0.703-3.226,2.968-2.531,5.062
			c0.562,1.671,2.124,2.733,3.796,2.733c0.421,0,0.843-0.063,1.267-0.202l16.974-5.655
			C262.189,80.862,263.322,78.597,262.627,76.504z"/>
	</g>
</g>
<g>
	<g>
		<path d="M265.757,56.99c-2.078-0.688-4.351,0.429-5.062,2.53l-5.671,16.967c-0.696,2.093,0.437,4.359,2.531,5.062
			c0.422,0.141,0.844,0.203,1.266,0.203c1.671,0,3.234-1.055,3.796-2.734l5.671-16.966C268.984,59.958,267.851,57.693,265.757,56.99
			z"/>
	</g>
</g>
<g>
	<g>
		<path d="M285.254,53.865c-0.703-2.092-2.953-3.225-5.062-2.53l-16.966,5.655c-2.093,0.704-3.226,2.968-2.531,5.062
			c0.563,1.672,2.125,2.734,3.796,2.734c0.422,0,0.844-0.062,1.265-0.203l16.967-5.656
			C284.816,58.224,285.948,55.959,285.254,53.865z"/>
	</g>
</g>
<g>
	<g>
		<path d="M288.379,34.368c-2.079-0.688-4.351,0.437-5.062,2.531l-5.656,16.966c-0.695,2.094,0.437,4.36,2.531,5.062
			c0.422,0.141,0.844,0.203,1.266,0.203c1.672,0,3.234-1.062,3.797-2.733l5.654-16.967
			C291.605,37.337,290.472,35.071,288.379,34.368z"/>
	</g>
</g>
<g>
	<g>
		<path d="M307.891,31.228c-0.704-2.101-2.969-3.226-5.062-2.531l-16.982,5.671c-2.092,0.704-3.225,2.969-2.53,5.062
			c0.563,1.679,2.124,2.734,3.796,2.734c0.422,0,0.844-0.062,1.266-0.203l16.981-5.671
			C307.453,35.586,308.586,33.321,307.891,31.228z"/>
	</g>
</g>
<g>
	<g>
		<path d="M480.748,204.093c-2.085-0.688-4.351,0.437-5.062,2.531l-5.655,16.981c-0.696,2.102,0.437,4.36,2.531,5.062
			c0.421,0.141,0.843,0.203,1.265,0.203c1.672,0,3.235-1.061,3.796-2.733l5.655-16.982
			C483.974,207.054,482.841,204.796,480.748,204.093z"/>
	</g>
</g>
<g>
	<g>
		<path d="M477.625,223.605c-0.704-2.092-2.961-3.225-5.062-2.53l-16.975,5.655c-2.092,0.704-3.225,2.968-2.53,5.062
			c0.563,1.672,2.124,2.734,3.796,2.734c0.421,0,0.843-0.062,1.266-0.203l16.974-5.656
			C477.187,227.964,478.32,225.699,477.625,223.605z"/>
	</g>
</g>
<g>
	<g>
		<path d="M458.12,226.73c-2.079-0.68-4.351,0.429-5.062,2.53l-5.672,16.967c-0.695,2.093,0.437,4.359,2.531,5.062
			c0.422,0.141,0.844,0.203,1.266,0.203c1.672,0,3.234-1.054,3.796-2.734l5.671-16.966
			C461.346,229.698,460.213,227.433,458.12,226.73z"/>
	</g>
</g>
<g>
	<g>
		<path d="M454.979,246.227c-0.703-2.101-2.992-3.226-5.062-2.531l-16.974,5.679c-2.101,0.704-3.226,2.969-2.531,5.062
			c0.563,1.679,2.125,2.734,3.796,2.734c0.422,0,0.852-0.063,1.266-0.203l16.975-5.679
			C454.55,250.585,455.674,248.32,454.979,246.227z"/>
	</g>
</g>
<g>
	<g>
		<path d="M435.489,249.352c-2.085-0.68-4.359,0.437-5.062,2.531l-5.655,16.986c-0.696,2.093,0.437,4.359,2.531,5.061
			c0.422,0.141,0.844,0.203,1.266,0.203c1.671,0,3.234-1.062,3.796-2.733l5.655-16.986
			C438.716,252.313,437.583,250.055,435.489,249.352z"/>
	</g>
</g>
<g>
	<g>
		<path d="M432.365,268.869c-0.704-2.093-2.961-3.234-5.062-2.531l-16.99,5.655c-2.093,0.704-3.225,2.953-2.531,5.062
			c0.563,1.672,2.117,2.734,3.797,2.734c0.422,0,0.844-0.062,1.266-0.203l16.989-5.656
			C431.927,273.227,433.06,270.962,432.365,268.869z"/>
	</g>
</g>
<g>
	<g>
		<path d="M412.844,271.993c-2.101-0.719-4.359,0.437-5.062,2.53l-5.646,16.967c-0.696,2.11,0.437,4.374,2.53,5.062
			c0.422,0.141,0.844,0.203,1.266,0.203c1.678,0,3.233-1.063,3.795-2.733l5.648-16.967
			C416.07,274.945,414.938,272.681,412.844,271.993z"/>
	</g>
</g>
<g>
	<g>
		<path d="M409.728,291.49c-0.704-2.093-2.968-3.219-5.062-2.531l-16.966,5.656c-2.093,0.703-3.226,2.953-2.531,5.062
			c0.563,1.671,2.117,2.733,3.797,2.733c0.422,0,0.843-0.062,1.265-0.203l16.967-5.655
			C409.29,295.848,410.423,293.599,409.728,291.49z"/>
	</g>
</g>
<g>
	<g>
		<path d="M390.231,294.616c-2.093-0.688-4.359,0.437-5.062,2.53l-5.663,16.997c-0.696,2.109,0.437,4.359,2.53,5.062
			c0.422,0.141,0.844,0.203,1.266,0.203c1.672,0,3.234-1.062,3.797-2.733l5.663-16.997
			C393.458,297.568,392.325,295.318,390.231,294.616z"/>
	</g>
</g>
<g>
	<g>
		<path d="M387.097,314.143c-0.703-2.092-2.968-3.233-5.062-2.53l-16.981,5.655c-2.092,0.704-3.225,2.969-2.53,5.062
			c0.563,1.672,2.116,2.734,3.796,2.734c0.422,0,0.844-0.063,1.265-0.204l16.981-5.655
			C386.659,318.502,387.792,316.252,387.097,314.143z"/>
	</g>
</g>
<g>
	<g>
		<path d="M358.837,161.631c-0.547-2.148-2.735-3.445-4.851-2.914l-45.243,11.326c-2.148,0.54-3.445,2.711-2.914,4.852
			c0.461,1.819,2.086,3.03,3.883,3.03c0.32,0,0.648-0.039,0.969-0.117l45.242-11.326
			C358.071,165.943,359.368,163.771,358.837,161.631z"/>
	</g>
</g>
<g>
	<g>
		<path d="M355.923,158.717c-2.163-0.524-4.32,0.766-4.851,2.914l-11.303,45.259c-0.531,2.14,0.773,4.312,2.913,4.851
			c0.328,0.078,0.649,0.117,0.969,0.117c1.797,0,3.43-1.211,3.883-3.031l11.303-45.259
			C359.368,161.428,358.064,159.256,355.923,158.717z"/>
	</g>
</g>
<g>
	<g>
		<path d="M346.479,205.031l-33.94-33.933c-1.561-1.562-4.093-1.562-5.655,0s-1.562,4.093,0,5.655l33.94,33.933
			c0.781,0.781,1.804,1.172,2.827,1.172c1.024,0,2.047-0.391,2.828-1.172C348.041,209.124,348.041,206.593,346.479,205.031z"/>
	</g>
</g>
<g>
	<g>
		<path d="M357.79,193.72l-33.939-33.94c-1.562-1.562-4.094-1.562-5.656,0s-1.562,4.093,0,5.655l33.94,33.94
			c0.781,0.781,1.805,1.172,2.828,1.172c1.022,0,2.046-0.391,2.827-1.172C359.352,197.813,359.352,195.282,357.79,193.72z"/>
	</g>
</g>
<g>
	<g>
		<path d="M255.993,148.485c-4.547-4.547-12.444-4.547-16.99,0c-2.266,2.264-3.508,5.28-3.5,8.482
			c0.008,3.204,1.266,6.218,3.531,8.476c2.273,2.273,5.289,3.523,8.491,3.523c3.204,0,6.203-1.25,8.445-3.5
			c2.281-2.257,3.538-5.272,3.538-8.483C259.515,153.765,258.266,150.75,255.993,148.485z M250.314,159.811
			c-1.5,1.492-4.117,1.485-5.632-0.031c-0.757-0.758-1.179-1.758-1.179-2.828c0-1.062,0.406-2.062,1.156-2.812
			c0.758-0.758,1.773-1.18,2.843-1.18s2.078,0.422,2.836,1.18c0.757,0.758,1.171,1.758,1.171,2.827
			C251.509,158.038,251.087,159.038,250.314,159.811z"/>
	</g>
</g>
<g>
	<g>
		<path d="M289.942,114.52c-4.547-4.53-12.445-4.522-16.975,0.008c-2.272,2.274-3.522,5.304-3.522,8.515
			c0.007,3.21,1.265,6.218,3.522,8.459c2.257,2.273,5.272,3.523,8.483,3.523c3.219,0,6.234-1.25,8.476-3.516
			C294.605,126.831,294.621,119.214,289.942,114.52z M284.263,125.863c-1.5,1.492-4.11,1.523-5.641-0.016
			c-0.758-0.75-1.172-1.75-1.18-2.819c0-1.071,0.422-2.086,1.18-2.844s1.758-1.172,2.828-1.172c1.078,0,2.086,0.422,2.836,1.164
			C285.84,121.739,285.832,124.285,284.263,125.863z"/>
	</g>
</g>
<g>
	<g>
		<path d="M323.882,80.58c-4.539-4.538-12.46-4.522-16.967,0c-2.265,2.265-3.523,5.28-3.523,8.491c0,3.202,1.25,6.225,3.516,8.491
			c2.265,2.265,5.28,3.515,8.483,3.515c3.218,0,6.233-1.258,8.491-3.53c2.265-2.258,3.507-5.266,3.515-8.476
			C327.397,85.86,326.147,82.846,323.882,80.58z M318.218,91.899c-1.515,1.516-4.139,1.524-5.655,0.008
			c-0.758-0.757-1.171-1.765-1.171-2.835s0.421-2.078,1.187-2.836c0.742-0.758,1.75-1.172,2.82-1.172
			c1.069,0,2.069,0.421,2.827,1.172c0.758,0.758,1.172,1.758,1.172,2.836C319.398,90.134,318.984,91.142,318.218,91.899z"/>
	</g>
</g>
<g>
	<g>
		<path d="M363.462,255.944c-4.555-4.538-12.444-4.53-16.998,0.008c-4.663,4.688-4.648,12.292,0.031,16.963
			c2.273,2.265,5.288,3.515,8.491,3.515s6.203-1.25,8.46-3.5C368.125,268.244,368.133,260.632,363.462,255.944z M357.79,267.276
			c-1.508,1.5-4.132,1.5-5.64-0.031c-1.562-1.547-1.57-4.09-0.023-5.645c0.758-0.757,1.766-1.171,2.844-1.171
			c1.069,0,2.077,0.414,2.835,1.171C359.36,263.163,359.352,265.714,357.79,267.276z"/>
	</g>
</g>
<g>
	<g>
		<path d="M397.41,221.997c-4.546-4.546-12.459-4.53-16.974,0c-2.281,2.273-3.531,5.304-3.523,8.522
			c0.007,3.211,1.265,6.217,3.523,8.444c2.256,2.273,5.272,3.522,8.483,3.522c3.21,0,6.217-1.241,8.475-3.506
			C402.074,234.293,402.082,226.677,397.41,221.997z M391.738,233.323c-1.492,1.499-4.108,1.539-5.655-0.023
			c-0.758-0.75-1.172-1.742-1.172-2.797c-0.007-1.078,0.415-2.086,1.188-2.858c0.75-0.75,1.75-1.164,2.812-1.164
			c1.077,0,2.085,0.414,2.843,1.171C393.308,229.206,393.3,231.753,391.738,233.323z"/>
	</g>
</g>
<g>
	<g>
		<path d="M431.341,188.049c-4.515-4.531-12.459-4.531-16.958,0c-2.265,2.264-3.523,5.28-3.523,8.49c0,3.203,1.25,6.225,3.516,8.491
			c2.265,2.266,5.273,3.508,8.475,3.508c3.211,0,6.233-1.25,8.483-3.515c2.265-2.258,3.514-5.265,3.522-8.468
			C434.863,193.337,433.614,190.321,431.341,188.049z M425.678,199.367c-1.507,1.5-4.14,1.508-5.647,0.008
			c-0.758-0.758-1.172-1.766-1.172-2.836s0.422-2.077,1.188-2.843c0.75-0.75,1.75-1.164,2.812-1.164c1.07,0,2.069,0.414,2.827,1.172
			s1.172,1.766,1.172,2.835C426.858,197.609,426.444,198.609,425.678,199.367z"/>
	</g>
</g>
<g>
	<g>
		<path d="M250.331,176.753c-1.563-1.562-4.094-1.562-5.656,0l-11.311,11.312c-1.562,1.561-1.562,4.093,0,5.655
			c0.781,0.781,1.805,1.172,2.828,1.172s2.046-0.391,2.828-1.172l11.311-11.311C251.893,180.847,251.893,178.315,250.331,176.753z"
			/>
	</g>
</g>
<g>
	<g>
		<path d="M352.135,74.941c-1.562-1.562-4.093-1.562-5.655,0l-11.287,11.295c-1.562,1.562-1.562,4.093,0,5.655
			c0.781,0.781,1.805,1.172,2.827,1.172c1.023,0,2.047-0.391,2.828-1.172l11.287-11.295
			C353.697,79.034,353.697,76.503,352.135,74.941z"/>
	</g>
</g>
<g>
	<g>
		<path d="M436.982,159.787c-1.562-1.562-4.093-1.562-5.655,0l-11.295,11.287c-1.562,1.562-1.562,4.093,0,5.655
			c0.78,0.781,1.804,1.172,2.827,1.172s2.046-0.39,2.828-1.172l11.295-11.287C438.544,163.88,438.544,161.349,436.982,159.787z"/>
	</g>
</g>
<g>
	<g>
		<path d="M335.169,261.6c-1.562-1.562-4.094-1.562-5.656,0l-11.318,11.3c-1.562,1.546-1.562,4.093,0,5.655
			c0.781,0.781,1.805,1.172,2.828,1.172s2.046-0.391,2.828-1.172l11.318-11.295C336.731,265.698,336.731,263.162,335.169,261.6z"/>
	</g>
</g>
<g>
	<g>
		<path d="M56.35,470.634c-1.992-0.953-4.383-0.093-5.328,1.891c-2.96,6.233-2.327,12.42-1.812,17.404
			c0.297,2.858,0.633,6.107-0.242,6.982c-9.358,9.343-24.59,9.343-33.948,0c-4.53-4.545-7.022-10.576-7.022-16.981
			c0-6.405,2.499-12.42,7.038-16.966c0.883-0.875,4.116-0.531,6.96-0.234c4.976,0.5,11.178,1.141,17.396-1.828
			c1.992-0.953,2.836-3.344,1.883-5.343c-0.953-2-3.359-2.844-5.335-1.875c-4.211,2-8.741,1.531-13.123,1.078
			c-4.859-0.5-9.881-1.015-13.443,2.562C3.328,463.355,0,471.384,0,479.93c0,8.546,3.32,16.576,9.366,22.638
			c6.241,6.233,14.435,9.342,22.629,9.342c8.195,0,16.397-3.109,22.629-9.342c3.562-3.578,3.046-8.593,2.546-13.467
			c-0.453-4.391-0.922-8.937,1.07-13.139C59.193,473.962,58.342,471.587,56.35,470.634z"/>
	</g>
</g>
<g>
	<g>
		<path d="M102.046,437.047l-33.932-22.622c-1.828-1.219-4.312-0.735-5.546,1.109c-1.226,1.828-0.726,4.312,1.109,5.546
			l33.933,22.621c0.68,0.453,1.453,0.672,2.219,0.672c1.289,0,2.554-0.625,3.326-1.78
			C104.381,440.749,103.881,438.266,102.046,437.047z"/>
	</g>
</g>
<g>
	<g>
		<path d="M119.622,420.58c-1.562-1.562-4.093-1.562-5.655,0l-11.295,11.311c-1.562,1.562-1.562,4.094,0,5.656
			c0.781,0.781,1.805,1.171,2.828,1.171c1.024,0,2.047-0.39,2.827-1.171l11.295-11.312
			C121.184,424.674,121.184,422.142,119.622,420.58z"/>
	</g>
</g>
<g>
	<g>
		<path d="M85.69,397.959c-1.562-1.562-4.093-1.562-5.655,0L68.724,409.27c-1.562,1.562-1.562,4.093,0,5.655
			c0.782,0.781,1.805,1.172,2.828,1.172s2.047-0.391,2.827-1.172l11.311-11.311C87.252,402.052,87.252,399.521,85.69,397.959z"/>
	</g>
</g>
<g>
	<g>
		<path d="M119.015,420.08l-33.933-22.621c-1.82-1.219-4.312-0.735-5.546,1.109c-1.227,1.827-0.727,4.312,1.109,5.546l33.932,22.621
			c0.679,0.453,1.452,0.672,2.218,0.672c1.289,0,2.555-0.625,3.329-1.781C121.35,423.783,120.85,421.299,119.015,420.08z"/>
	</g>
</g>
<g>
	<g>
		<path d="M136.589,403.614c-1.562-1.562-4.093-1.562-5.655,0l-11.287,11.311c-1.562,1.562-1.562,4.093,0,5.655
			c0.781,0.781,1.804,1.172,2.827,1.172s2.047-0.391,2.828-1.172l11.287-11.311C138.151,407.707,138.151,405.16,136.589,403.614z"/>
	</g>
</g>
<g>
	<g>
		<path d="M102.664,380.977c-1.563-1.562-4.094-1.562-5.656,0L85.69,392.303c-1.562,1.562-1.562,4.094,0,5.656
			c0.782,0.781,1.805,1.172,2.828,1.172c1.024,0,2.047-0.391,2.827-1.172l11.319-11.327
			C104.226,385.071,104.226,382.539,102.664,380.977z"/>
	</g>
</g>
<g>
	<g>
		<path d="M135.979,403.115l-33.924-22.638c-1.827-1.219-4.312-0.735-5.546,1.109c-1.226,1.844-0.726,4.328,1.109,5.546
			l33.925,22.637c0.679,0.453,1.453,0.672,2.218,0.672c1.289,0,2.555-0.625,3.327-1.78
			C138.315,406.817,137.815,404.333,135.979,403.115z"/>
	</g>
</g>
<g>
	<g>
		<path d="M153.563,386.648c-1.562-1.562-4.093-1.562-5.655,0l-11.295,11.296c-1.562,1.561-1.562,4.093,0,5.655
			c0.781,0.78,1.805,1.171,2.828,1.171c1.022,0,2.046-0.391,2.827-1.171l11.295-11.296
			C155.125,390.742,155.125,388.21,153.563,386.648z"/>
	</g>
</g>
<g>
	<g>
		<path d="M119.622,364.027c-1.562-1.562-4.093-1.562-5.655,0l-11.303,11.295c-1.562,1.562-1.562,4.093,0,5.655
			c0.781,0.781,1.805,1.172,2.828,1.172c1.024,0,2.047-0.391,2.827-1.172l11.303-11.295
			C121.184,368.12,121.184,365.589,119.622,364.027z"/>
	</g>
</g>
<g>
	<g>
		<path d="M152.953,386.149l-33.94-22.622c-1.828-1.219-4.312-0.735-5.546,1.109c-1.226,1.827-0.726,4.312,1.109,5.546l33.94,22.621
			c0.68,0.453,1.453,0.672,2.219,0.672c1.29,0,2.555-0.625,3.327-1.781C155.288,389.867,154.788,387.382,152.953,386.149z"/>
	</g>
</g>
<g>
	<g>
		<path d="M170.529,369.666c-1.562-1.562-4.093-1.562-5.655,0l-11.303,11.311c-1.562,1.562-1.562,4.093,0,5.655
			c0.782,0.781,1.805,1.172,2.828,1.172c1.023,0,2.046-0.391,2.827-1.172l11.303-11.311
			C172.091,373.759,172.091,371.228,170.529,369.666z"/>
	</g>
</g>
<g>
	<g>
		<path d="M136.589,347.061c-1.562-1.562-4.093-1.562-5.655,0l-11.303,11.295c-1.562,1.562-1.562,4.093,0,5.655
			c0.781,0.781,1.804,1.172,2.827,1.172c1.024,0,2.047-0.391,2.828-1.172l11.303-11.296
			C138.151,351.154,138.151,348.623,136.589,347.061z"/>
	</g>
</g>
<g>
	<g>
		<path d="M169.921,369.166l-33.94-22.605c-1.82-1.219-4.312-0.735-5.546,1.108c-1.227,1.828-0.727,4.313,1.109,5.546l33.94,22.606
			c0.679,0.453,1.452,0.672,2.218,0.672c1.288,0,2.554-0.625,3.328-1.781C172.257,372.885,171.757,370.4,169.921,369.166z"/>
	</g>
</g>
<g>
	<g>
		<path d="M187.495,352.699c-1.562-1.562-4.093-1.562-5.655,0l-11.303,11.312c-1.562,1.561-1.562,4.093,0,5.655
			c0.782,0.781,1.805,1.172,2.828,1.172c1.023,0,2.046-0.391,2.827-1.172l11.303-11.311
			C189.057,356.793,189.057,354.261,187.495,352.699z"/>
	</g>
</g>
<g>
	<g>
		<path d="M153.555,330.079c-1.562-1.562-4.093-1.562-5.655,0l-11.311,11.326c-1.562,1.562-1.562,4.094,0,5.656
			c0.781,0.78,1.805,1.171,2.828,1.171c1.023,0,2.046-0.391,2.827-1.171l11.311-11.327
			C155.117,334.173,155.117,331.641,153.555,330.079z"/>
	</g>
</g>
<g>
	<g>
		<path d="M186.886,352.199l-33.94-22.621c-1.82-1.219-4.32-0.735-5.546,1.109c-1.226,1.828-0.726,4.312,1.109,5.546l33.94,22.622
			c0.68,0.453,1.453,0.672,2.219,0.672c1.289,0,2.554-0.625,3.327-1.781C189.221,355.918,188.721,353.433,186.886,352.199z"/>
	</g>
</g>
<g>
	<g>
		<path d="M204.462,335.733c-1.562-1.562-4.093-1.562-5.655,0l-11.296,11.312c-1.562,1.561-1.562,4.092,0,5.654
			c0.781,0.781,1.805,1.172,2.828,1.172c1.023,0,2.046-0.39,2.828-1.172l11.295-11.311
			C206.024,339.826,206.024,337.295,204.462,335.733z"/>
	</g>
</g>
<g>
	<g>
		<path d="M170.521,313.111c-1.562-1.562-4.093-1.562-5.655,0l-11.311,11.312c-1.562,1.562-1.562,4.093,0,5.655
			c0.782,0.781,1.805,1.172,2.828,1.172c1.023,0,2.047-0.391,2.827-1.172l11.311-11.311
			C172.083,317.205,172.083,314.673,170.521,313.111z"/>
	</g>
</g>
<g>
	<g>
		<path d="M203.853,335.234l-33.94-22.621c-1.828-1.219-4.312-0.735-5.546,1.108c-1.227,1.828-0.727,4.313,1.109,5.547l33.94,22.621
			c0.679,0.453,1.452,0.672,2.218,0.672c1.289,0,2.555-0.625,3.328-1.781C206.188,338.953,205.688,336.468,203.853,335.234z"/>
	</g>
</g>
<g>
	<g>
		<path d="M221.428,318.767c-1.562-1.562-4.093-1.562-5.655,0l-11.295,11.311c-1.562,1.562-1.562,4.093,0,5.655
			c0.781,0.781,1.804,1.172,2.827,1.172c1.023,0,2.047-0.39,2.828-1.172l11.295-11.311
			C222.99,322.86,222.99,320.329,221.428,318.767z"/>
	</g>
</g>
<g>
	<g>
		<path d="M187.494,296.145c-1.562-1.562-4.093-1.562-5.655,0l-11.318,11.312c-1.562,1.561-1.562,4.092,0,5.654
			c0.782,0.781,1.805,1.172,2.828,1.172c1.024,0,2.047-0.39,2.827-1.172l11.318-11.311
			C189.056,300.238,189.056,297.707,187.494,296.145z"/>
	</g>
</g>
<g>
	<g>
		<path d="M220.818,318.268l-33.932-22.622c-1.819-1.218-4.319-0.734-5.546,1.109c-1.226,1.844-0.726,4.327,1.109,5.546
			l33.933,22.622c0.679,0.453,1.453,0.672,2.218,0.672c1.289,0,2.554-0.625,3.327-1.781
			C223.154,321.986,222.654,319.502,220.818,318.268z"/>
	</g>
</g>
<g>
	<g>
		<path d="M238.402,301.817c-1.562-1.562-4.093-1.562-5.655,0l-11.303,11.295c-1.562,1.562-1.562,4.094,0,5.656
			c0.781,0.781,1.805,1.172,2.828,1.172s2.046-0.391,2.827-1.172l11.303-11.295C239.964,305.911,239.964,303.379,238.402,301.817z"
			/>
	</g>
</g>
<g>
	<g>
		<path d="M204.462,279.179c-1.562-1.562-4.093-1.562-5.655,0l-11.312,11.311c-1.562,1.562-1.562,4.093,0,5.655
			c0.781,0.781,1.805,1.172,2.828,1.172c1.024,0,2.047-0.39,2.828-1.172l11.311-11.311
			C206.024,283.272,206.024,280.741,204.462,279.179z"/>
	</g>
</g>
<g>
	<g>
		<path d="M237.792,301.317l-33.94-22.637c-1.828-1.219-4.312-0.735-5.546,1.109c-1.226,1.828-0.726,4.312,1.109,5.546l33.94,22.638
			c0.68,0.452,1.453,0.671,2.219,0.671c1.289,0,2.555-0.624,3.327-1.78C240.127,305.02,239.627,302.536,237.792,301.317z"/>
	</g>
</g>
<g>
	<g>
		<path d="M249.712,290.475c-1.562-1.546-4.101-1.546-5.663,0.016l-5.648,5.655c-1.554,1.578-1.554,4.109,0.008,5.671
			c0.782,0.765,1.805,1.156,2.828,1.156c1.024,0,2.055-0.391,2.836-1.172l5.647-5.655
			C251.274,294.569,251.274,292.037,249.712,290.475z"/>
	</g>
</g>
<g>
	<g>
		<path d="M221.428,262.21c-1.562-1.562-4.093-1.562-5.655,0l-11.311,11.315c-1.562,1.561-1.562,4.093,0,5.655
			c0.781,0.781,1.804,1.172,2.827,1.172c1.024,0,2.047-0.391,2.828-1.171l11.311-11.311
			C222.99,266.308,222.99,263.772,221.428,262.21z"/>
	</g>
</g>
<g>
	<g>
		<path d="M43.291,485.586c-1.547-1.546-4.094-1.562-5.656,0.016c-1.5,1.5-3.499,2.328-5.632,2.328h-0.008
			c-2.14,0-4.147-0.828-5.663-2.344c-3.117-3.109-3.117-8.186,0-11.311c1.562-1.562,1.562-4.093,0-5.655s-4.093-1.562-5.655,0
			c-6.233,6.233-6.233,16.388,0,22.621c3.023,3.032,7.038,4.687,11.318,4.687c0,0,0.008,0,0.017,0c4.273,0,8.28-1.671,11.295-4.687
			C44.861,489.68,44.861,487.148,43.291,485.586z"/>
	</g>
</g>
<g>
</g>
<g>
</g>
<g>
</g>
<g>
</g>
<g>
</g>
<g>
</g>
<g>
</g>
<g>
</g>
<g>
</g>
<g>
</g>
<g>
</g>
<g>
</g>
<g>
</g>
<g>
</g>
<g>
</g>
</svg>
