<?xml version="1.0" encoding="iso-8859-1"?>
<!-- Generator: Adobe Illustrator 21.0.0, SVG Export Plug-In . SVG Version: 6.00 Build 0)  -->
<svg xmlns="http://www.w3.org/2000/svg" xmlns:xlink="http://www.w3.org/1999/xlink" version="1.1" id="Capa_1" x="0px" y="0px" viewBox="0 0 512 512" style="enable-background:new 0 0 512 512;" xml:space="preserve" width="512" height="512">
<g>
	<path d="M391.893,162.087l-50.268-20.586c-8.979-3.678-14.78-12.322-14.78-22.024v-18.441c11.898-2.405,20.885-12.942,20.885-25.54   v-1.458c0-14.367-11.688-26.057-26.056-26.057h-4.797l0.946-33.313C318.05,6.628,311.609,0,303.564,0h-95.128   c-8.046,0-14.487,6.629-14.259,14.67l0.946,33.312h-4.796c-14.367,0-26.056,11.689-26.056,26.057v1.458   c0,12.598,8.986,23.134,20.885,25.54v18.441c0,9.702-5.802,18.347-14.78,22.024l-50.268,20.586   c-14.25,5.836-23.458,19.557-23.458,34.955v102.234c0,4.143,3.358,7.5,7.5,7.5s7.5-3.357,7.5-7.5V197.042   c0-9.283,5.551-17.556,14.142-21.074l50.268-20.586c14.637-5.995,24.095-20.089,24.095-35.905v-17.924h64.495   c4.143,0,7.5-3.357,7.5-7.5s-3.357-7.5-7.5-7.5h-74.324c-6.096,0-11.056-4.96-11.056-11.057v-1.458   c0-6.097,4.96-11.057,11.056-11.057h131.347c6.096,0,11.056,4.96,11.056,11.057v1.458c0,6.097-4.96,11.057-11.056,11.057H299.65   c-4.143,0-7.5,3.357-7.5,7.5s3.357,7.5,7.5,7.5h12.194v17.924c0,15.816,9.458,29.91,24.095,35.905l50.268,20.586   c8.592,3.519,14.143,11.791,14.143,21.074v289.304c0,5.875-4.779,10.654-10.654,10.654H122.304   c-5.875,0-10.654-4.779-10.654-10.654V334.276c0-4.143-3.358-7.5-7.5-7.5s-7.5,3.357-7.5,7.5v152.069   c0,14.146,11.508,25.654,25.654,25.654h267.391c14.146,0,25.654-11.509,25.654-25.654V197.042   C415.35,181.644,406.142,167.923,391.893,162.087z M209.193,15h93.615l-0.937,32.981h-91.742L209.193,15z"/>
	<path d="M255.95,362.929c-7.965,0-13.604,9.167-15.68,14.583c-1.482,3.868,0.452,8.205,4.319,9.688   c3.866,1.484,8.205-0.451,9.688-4.318c0.469-1.224,1.08-2.337,1.673-3.233c0.594,0.896,1.204,2.01,1.673,3.233   c1.485,3.873,5.823,5.799,9.688,4.32c3.868-1.482,5.802-5.819,4.32-9.688C269.555,372.097,263.916,362.929,255.95,362.929z"/>
	<path d="M254.027,343.938c0-12.008-9.769-21.776-21.777-21.776c-12.007,0-21.776,9.769-21.776,21.776s9.769,21.776,21.776,21.776   C244.258,365.714,254.027,355.945,254.027,343.938z M232.25,350.714c-3.736,0-6.776-3.04-6.776-6.776s3.04-6.776,6.776-6.776   c3.737,0,6.777,3.04,6.777,6.776S235.987,350.714,232.25,350.714z"/>
	<path d="M301.427,343.938c0-12.008-9.769-21.776-21.776-21.776s-21.777,9.769-21.777,21.776s9.77,21.776,21.777,21.776   S301.427,355.945,301.427,343.938z M279.65,350.714c-3.737,0-6.777-3.04-6.777-6.776s3.04-6.776,6.777-6.776   c3.736,0,6.776,3.04,6.776,6.776S283.387,350.714,279.65,350.714z"/>
	<path d="M352.848,378.951c-8.153-7.573-20.544-8.403-29.615-2.444l-0.738-0.739c2.776-3.251,4.463-7.458,4.463-12.058   c0-6.14-3.009-11.854-8.059-15.33l1.486-20.186c0.751-10.206-0.772-20.13-4.364-29.229l7.362-7.362   c9.151,6.064,21.922,5.304,30.304-3.11c8.754-8.786,9.114-23.962,0.786-33.139c0,0,0,0,0-0.001   c-3.264-3.595-7.468-6.095-12.163-7.231c-0.202-0.05-0.297-0.146-0.297-0.127c-4.309-18.591-27.865-25.149-41.084-10.917   c-7.568,8.147-8.403,20.532-2.443,29.613l-4.084,4.083c-10.765-8.01-23.769-12.425-37.639-12.594   c-14.137-0.202-27.931,4.352-39.198,12.657l-4.146-4.146c5.959-9.076,5.125-21.465-2.444-29.613   c-13.076-14.078-36.754-7.87-41.066,10.871c-0.286,0.433-6.668,1.002-12.478,7.404c-8.328,9.176-7.968,24.353,0.786,33.139   c8.381,8.412,21.145,9.175,30.301,3.108l7.375,7.375c-3.572,9-5.144,18.778-4.42,28.602l1.532,20.803   c-9.043,6.229-10.808,18.941-3.596,27.388l-0.739,0.739c-15.723-10.323-36.958,0.636-37.308,19.642   c-0.219,11.897,8.089,21.457,18.567,23.869c0.024,0.016,0.124,0.116,0.172,0.316c4.62,19.099,28.107,23.593,40.371,11.375   c4.56-4.543,7.074-10.59,7.081-17.025c0.004-4.779-1.375-9.346-3.977-13.272l5.179-5.179l1.98,15.08   c0.845,6.441,6.382,11.3,12.879,11.3h44.678c6.498,0,12.035-4.858,12.88-11.299l1.98-15.08l5.172,5.172   c-6.081,9.176-5.285,21.939,3.11,30.304c8.773,8.741,23.948,9.128,33.14,0.786c3.597-3.265,6.097-7.471,7.231-12.161   c0.048-0.198,0.146-0.299,0.127-0.299c0,0,0,0-0.001,0C360.493,415.736,367.104,392.195,352.848,378.951z M311.918,247.286   c5.015-5.398,13.872-2.852,15.48,4.094c1.297,5.6,5.66,9.938,11.384,11.32c1.761,0.427,3.346,1.372,4.582,2.733   c3.023,3.332,2.878,9.277-0.306,12.473c-3.381,3.395-8.883,3.75-12.842,0c-3.912-3.922-10.312-4.039-14.308-0.044l-7.369,7.37   c-1.075-1.507-2.34-3.12-3.22-4.165l6.899-6.898c4.012-4.014,3.873-10.424-0.017-14.275   C308.651,256.368,308.697,250.753,311.918,247.286z M203.361,285.231l-7.369-7.368c-4.134-4.135-10.508-3.768-14.32,0.056   c-3.756,3.756-9.484,3.345-12.83-0.013c-3.184-3.196-3.329-9.141-0.305-12.473c1.235-1.361,2.82-2.307,4.579-2.732   c5.727-1.384,10.09-5.722,11.386-11.32c1.641-7.075,10.546-9.407,15.481-4.095c3.213,3.459,3.271,9.065-0.272,12.595   c-3.968,3.931-3.984,10.331-0.029,14.288l6.906,6.906C206.194,281.541,204.376,283.815,203.361,285.231z M210.474,397.618   L210.474,397.618C210.559,397.705,210.554,397.698,210.474,397.618z M199.838,393.933c-3.929,3.93-3.949,10.327,0.046,14.31   l0.01,0.009c3.547,3.548,3.543,9.29-0.012,12.831c-3.195,3.185-9.139,3.33-12.471,0.306c-1.363-1.236-2.308-2.821-2.733-4.579   c-1.384-5.727-5.722-10.09-11.32-11.387c-7.009-1.621-9.451-10.508-4.095-15.48c3.505-3.256,9.128-3.223,12.596,0.273   c3.93,3.964,10.332,3.984,14.287,0.028l7.925-7.926h7.384L199.838,393.933z M276.525,407.612h-3.481v-5.041   c0-4.143-3.357-7.5-7.5-7.5s-7.5,3.357-7.5,7.5v5.041h-4.187v-5.041c0-4.143-3.358-7.5-7.5-7.5s-7.5,3.357-7.5,7.5v5.041h-3.482   l-3.37-25.665c-0.848-6.461-5.461-12.103-12.066-13.981c-3.088-0.88-5.132-0.626-16.387-0.649c-3.537,0-4.975-4.616-2.001-6.61   c4.349-2.92,6.81-8.011,6.422-13.288l-1.543-20.943c-2.13-28.926,20.876-53.568,50.148-53.298   c28.931,0.355,50.992,24.807,48.848,53.915l-1.497,20.326v-0.001c-0.39,5.277,2.072,10.37,6.424,13.29   c1.005,0.674,1.604,1.796,1.604,3.002c0,1.727-1.221,3.171-2.844,3.522c-0.267,0.056-0.517,0.085-0.763,0.085   c-11.889,0.025-13.433-0.209-16.389,0.65c-6.6,1.877-11.217,7.515-12.065,13.98L276.525,407.612z M338.544,405.422   c-5.598,1.297-9.936,5.659-11.321,11.386c-0.425,1.76-1.37,3.344-2.732,4.58c-3.33,3.023-9.276,2.88-12.472-0.305   c-3.529-3.517-3.588-9.256-0.004-12.84c3.928-3.912,4.043-10.313,0.048-14.311l-11.616-11.615h7.385l7.927,7.928   c3.968,3.964,10.363,3.926,14.285-0.03c3.486-3.514,9.105-3.515,12.596-0.273C348.03,394.947,345.502,403.812,338.544,405.422z"/>
	<path d="M378.143,286.521c4.143,0,7.5-3.357,7.5-7.5v-55.808c0-11.579-9.421-21-21-21H146.5c-11.58,0-21,9.421-21,21v218.144   c0,11.579,9.42,21,21,21h218.143c11.579,0,21-9.421,21-21V314.021c0-4.143-3.357-7.5-7.5-7.5s-7.5,3.357-7.5,7.5v127.336   c0,3.309-2.691,6-6,6H146.5c-3.309,0-6-2.691-6-6V223.214c0-3.309,2.691-6,6-6h218.143c3.309,0,6,2.691,6,6v55.808   C370.643,283.164,374,286.521,378.143,286.521z"/>
	<circle cx="225.434" cy="27.434" r="7.499"/>
	<circle cx="249.43" cy="35.714" r="7.499"/>
	<circle cx="288.71" cy="29.144" r="7.499"/>
</g>















</svg>
