<?xml version="1.0"?>
<svg xmlns="http://www.w3.org/2000/svg" viewBox="0 0 64 64" width="512" height="512"><g id="Skull-2" data-name="Skull"><path d="M42,53H41V51a1,1,0,0,0-2,0v2H37V51a1,1,0,0,0-2,0v2H33V51a1,1,0,0,0-2,0v2H29V51a1,1,0,0,0-2,0v2H25V51a1,1,0,0,0-2,0v2H22a1,1,0,0,0,0,2h1v2a1,1,0,0,0,2,0V55h2v2a1,1,0,0,0,2,0V55h2v2a1,1,0,0,0,2,0V55h2v2a1,1,0,0,0,2,0V55h2v2a1,1,0,0,0,2,0V55h1a1,1,0,0,0,0-2Z"/><path d="M28,31a6,6,0,1,0-6,6A6.006,6.006,0,0,0,28,31ZM18,31a4,4,0,1,1,4,4A4,4,0,0,1,18,31Z"/><path d="M42,25a6,6,0,1,0,6,6A6.006,6.006,0,0,0,42,25Zm0,10a4,4,0,1,1,4-4A4,4,0,0,1,42,35Z"/><path d="M29,48h6a1,1,0,0,0,.983-1.179l-2-11A1,1,0,0,0,33,35H31a1,1,0,0,0-.983.821l-2,11A1,1,0,0,0,29,48Zm2.835-11h.33L33.8,46H30.2Z"/><path d="M46.57,8.7a1.028,1.028,0,0,0-.737-.253,1,1,0,0,0-.916,1.186A10.514,10.514,0,0,1,45,11a11.54,11.54,0,0,1-4,8.639V15a2,2,0,0,0-2-2H33V11.858A4,4,0,0,0,36,8c0-1.941-2.712-5.062-3.256-5.668a1.031,1.031,0,0,0-1.488,0C30.712,2.938,28,6.059,28,8a4,4,0,0,0,3,3.858V13H25a2,2,0,0,0-2,2v4.639A11.54,11.54,0,0,1,19,11a10.514,10.514,0,0,1,.083-1.367A1.013,1.013,0,0,0,19.1,9.45V9.44a1,1,0,0,0-1.682-.732A24.972,24.972,0,0,0,17,48.986V57a5.006,5.006,0,0,0,5,5H42a5.006,5.006,0,0,0,5-5V48.986A24.971,24.971,0,0,0,46.57,8.7ZM30,8c0-.637.939-2.125,2-3.451C33.062,5.881,34,7.38,34,8a1.993,1.993,0,0,1-1,1.722V9a1,1,0,0,0-2,0v.722A1.993,1.993,0,0,1,30,8Zm9,7v1H37a2,2,0,0,0-2,2v.5a.5.5,0,0,1-1,0V18a2,2,0,0,0-2-2H25V15ZM25,18h7v.5a2.5,2.5,0,0,0,5,0V18h2v3.1a13.82,13.82,0,0,1-14,0ZM45.417,47.667A1,1,0,0,0,45,48.48V57a3,3,0,0,1-3,3H22a3,3,0,0,1-3-3V48.48a1,1,0,0,0-.417-.813,22.969,22.969,0,0,1-1.57-36.1C17.333,19.026,23.933,25,32,25s14.667-5.974,14.987-13.431a22.969,22.969,0,0,1-1.57,36.1Z"/></g></svg>
