<svg id="sword" enable-background="new 0 0 300 300" height="512" viewBox="0 0 300 300" width="512" xmlns="http://www.w3.org/2000/svg"><g><path d="m221.84 93.864c0 7.719 6.281 14 14 14s14-6.281 14-14-6.281-14-14-14-14 6.282-14 14zm14-6c3.309 0 6 2.691 6 6s-2.691 6-6 6-6-2.691-6-6 2.691-6 6-6z"/><circle cx="41.84" cy="139.864" r="4"/><circle cx="125.84" cy="263.864" r="4"/><path d="m217.84 137.716c0-2.211-1.791-4-4-4s-4 1.789-4 4v5.66c0 2.211 1.791 4 4 4s4-1.789 4-4z"/><path d="m213.84 156.353c-2.209 0-4 1.789-4 4v5.66c0 2.211 1.791 4 4 4s4-1.789 4-4v-5.66c0-2.211-1.792-4-4-4z"/><path d="m199.691 147.864c-2.209 0-4 1.789-4 4s1.791 4 4 4h5.66c2.209 0 4-1.789 4-4s-1.791-4-4-4z"/><path d="m222.328 147.864c-2.209 0-4 1.789-4 4s1.791 4 4 4h5.66c2.209 0 4-1.789 4-4s-1.791-4-4-4z"/><path d="m65.84 201.716c-2.209 0-4 1.789-4 4v5.66c0 2.211 1.791 4 4 4s4-1.789 4-4v-5.66c0-2.211-1.792-4-4-4z"/><path d="m65.84 224.353c-2.209 0-4 1.789-4 4v5.66c0 2.211 1.791 4 4 4s4-1.789 4-4v-5.66c0-2.211-1.792-4-4-4z"/><path d="m57.351 215.864h-5.66c-2.209 0-4 1.789-4 4s1.791 4 4 4h5.66c2.209 0 4-1.789 4-4s-1.791-4-4-4z"/><path d="m79.988 215.864h-5.66c-2.209 0-4 1.789-4 4s1.791 4 4 4h5.66c2.209 0 4-1.789 4-4s-1.791-4-4-4z"/><path d="m260.277 247.134-48.991-30.57-2.883-12.454 6.645-10.632 8.572 5.715c1.838 1.219 4.32.727 5.547-1.109 1.225-1.84.729-4.32-1.109-5.547l-12-8c-.9-.602-2.004-.801-3.061-.582-1.057.227-1.977.875-2.551 1.789l-8.232 13.17-14.316 3.312c-20.004-10.988-114.348-67.65-131.406-166.776-.314-1.824-1.84-3.195-3.689-3.312-1.803-.055-3.535 1.055-4.076 2.82-.328 1.074-31.418 107.852 86.025 169.422 1.965 1.02 4.377.273 5.4-1.688 1.025-1.953.271-4.371-1.686-5.398-83.32-43.68-88.636-109.184-85.492-141.18 22.991 81.748 95.278 131.874 123.49 148.758l-.693.16c-1.033.242-1.93.879-2.49 1.781-.562.898-.744 1.984-.504 3.02l.603 2.605c-9.012-3.231-17.645-6.757-25.681-10.547-1.998-.949-4.381-.09-5.324 1.91-.943 1.996-.088 4.383 1.91 5.324 9.704 4.58 20.215 8.796 31.234 12.555l3.369 14.557-8.442 13.506c-.596.957-.764 2.121-.457 3.203.305 1.086 1.053 1.992 2.061 2.496l16 8c.574.285 1.186.422 1.785.422 1.469 0 2.881-.809 3.582-2.211.988-1.977.188-4.379-1.789-5.367l-12.066-6.031 6.683-10.689 12.473-2.889 49.004 30.582c.641.398 1.375.605 2.117.605.301 0 .604-.035.902-.102 1.033-.242 1.93-.883 2.492-1.781l8.32-13.336c1.169-1.875.599-4.339-1.276-5.511zm-36.837-4.46 4.282-6.423 8.276 5.165-4.282 6.423zm-37.458-11.263-4.51-19.484 19.486-4.512 4.51 19.484zm25.188 2.383c2.152-.5 3.492-2.648 2.994-4.801l-.325-1.406 7.094 4.427-4.281 6.422-6.909-4.312zm37.394 24.559-10.058-6.277 4.282-6.423 9.86 6.153z"/><path d="m95.943 74.302c.604.324 1.252.477 1.893.477 1.424 0 2.803-.762 3.525-2.105.182-.332 18.773-33.539 71.328-17.766 2.131.629 4.346-.562 4.982-2.684.635-2.113-.566-4.344-2.682-4.98-58.741-17.614-80.46 21.241-80.671 21.64-1.047 1.941-.32 4.371 1.625 5.418z"/><path d="m130.256 119.61c-.369 2.18 1.1 4.242 3.277 4.613.225.035.449.055.67.055 1.918 0 3.609-1.383 3.939-3.332.094-.551 10.215-55.051 89.508-57.836 2.207-.074 3.934-1.93 3.857-4.137-.078-2.207-1.832-4.02-4.139-3.855-85.737 3.008-97.009 63.879-97.112 64.492z"/><path d="m150.039 62.95c-.879-2.031-3.236-2.965-5.26-2.086-24.215 10.469-34.055 28.348-34.461 29.105-1.047 1.945-.32 4.371 1.625 5.418.604.324 1.252.477 1.893.477 1.424 0 2.803-.762 3.525-2.105.088-.16 8.9-16.172 30.594-25.551 2.027-.879 2.961-3.23 2.084-5.258z"/></g></svg>