<svg height="512pt" viewBox="0 -7 512 512" width="512pt" xmlns="http://www.w3.org/2000/svg"><path d="m151.566406 171.859375c2.585938-42.691406 38.019532-76.515625 81.359375-76.515625 34.957031 0 64.769531 22 76.351563 52.914062 30.101562.359376 54.394531 24.863282 54.394531 55.050782 0 30.410156-24.65625 55.066406-55.066406 55.066406-12.734375 0-142.441407 0-155.523438 0-23.902343 0-43.277343-19.375-43.277343-43.277344-.003907-23.394531 18.5625-42.441406 41.761718-43.238281zm0 0" fill="#a09d9c"/><path d="m363.671875 203.308594c0 22.003906-12.914063 40.996094-31.574219 49.816406 3.363282-7.128906 5.25-15.09375 5.25-23.496094 0-30.1875-24.289062-54.691406-54.390625-55.050781-11.585937-30.914063-41.394531-52.914063-76.351562-52.914063-15.765625 0-30.484375 4.472657-42.957031 12.226563 14.386718-23.144531 40.03125-38.546875 69.28125-38.546875 34.949218 0 64.765624 22.003906 76.347656 52.910156 30.101562.367188 54.394531 24.867188 54.394531 55.054688zm0 0" fill="#82807f"/><path d="m455.601562 298.726562c-3.023437-49.980468-44.507812-89.582031-95.25-89.582031-40.921874 0-75.824218 25.761719-89.390624 61.949219-35.238282.425781-63.679688 29.109375-63.679688 64.453125 0 35.605469 28.867188 64.46875 64.472656 64.46875h182.078125c27.984375 0 50.667969-22.683594 50.667969-50.667969 0-27.386718-21.734375-49.6875-48.898438-50.621094zm0 0" fill="#6d6d6d"/><path d="m504.503906 349.347656c0 27.984375-22.6875 50.671875-50.671875 50.671875h-3.925781c3.671875-7.015625 5.753906-15 5.753906-23.464843 0-27.386719-21.734375-49.6875-48.898437-50.625-3.023438-49.976563-44.511719-89.582032-95.253907-89.582032-6.84375 0-13.515624.71875-19.941406 2.085938 17.355469-18.050782 41.753906-29.285156 68.785156-29.285156 50.742188 0 92.230469 39.597656 95.253907 89.582031 27.164062.929687 48.898437 23.230469 48.898437 50.617187zm0 0" fill="#565656"/><path d="m281.292969 306.527344c-2.910157-48.039063-42.785157-86.101563-91.554688-86.101563-39.332031 0-72.878906 24.757813-85.917969 59.542969-33.871093.40625-61.207031 27.976562-61.207031 61.945312 0 34.226563 27.742188 61.96875 61.96875 61.96875h175.007813c26.898437 0 48.699218-21.800781 48.699218-48.699218 0-26.324219-20.890624-47.757813-46.996093-48.65625zm0 0" fill="#6d6d6d"/><path d="m328.292969 355.183594c0 26.894531-21.808594 48.703125-48.703125 48.703125h-3.773438c3.53125-6.742188 5.53125-14.417969 5.53125-22.550781 0-26.324219-20.890625-47.761719-47-48.660157-2.90625-48.039062-42.785156-86.105469-91.554687-86.105469-6.578125 0-12.988281.691407-19.167969 2.007813 16.683594-17.351563 40.136719-28.152344 66.113281-28.152344 48.773438 0 88.648438 38.0625 91.554688 86.105469 26.109375.890625 47 22.328125 47 48.652344zm0 0" fill="#565656"/><path d="m396.199219 100.871094-31.808594 73.222656h20.792969c6.109375 0 9.449218 7.128906 5.53125 11.820312l-165.617188 179.71875 41.507813-161.875h-25.207031c-5.1875 0-8.675782-5.316406-6.609376-10.078124l31.816407-73.214844h-25.207031c-5.1875 0-8.675782-5.316406-6.609376-10.078125l42.824219-98.554688c1.144531-2.632812 3.742188-4.335937 6.609375-4.335937h105.367188c5.191406 0 8.679687 5.320312 6.609375 10.078125l-31.808594 73.214843h25.199219c5.191406.003907 8.679687 5.320313 6.609375 10.082032zm0 0" fill="#fab03c"/><path d="m396.203125 100.867188-31.808594 73.222656h20.78125c6.121094 0 9.457031 7.125 5.535157 11.820312l-165.613282 179.726563 24.640625-96.09375 77.066407-83.632813c3.921874-4.695312.589843-11.824218-5.535157-11.824218h-10.8125c-4.707031 0-7.871093-4.824219-5.996093-9.144532l27.835937-64.074218c2.066406-4.761719-1.425781-10.070313-6.617187-10.070313h-15.222657c-4.707031 0-7.871093-4.828125-5.996093-9.144531l27.835937-64.074219c2.066406-4.761719-1.425781-10.085937-6.617187-10.085937h63.90625c5.191406 0 8.683593 5.324218 6.617187 10.085937l-31.808594 73.21875h25.191407c5.191406 0 8.683593 5.3125 6.617187 10.070313zm0 0" fill="#f6cb43"/><path d="m393.011719 380.617188c-3.308594-54.628907-48.648438-97.910157-104.109375-97.910157-44.726563 0-82.875 28.15625-97.699219 67.707031-38.519531.464844-69.601563 31.816407-69.601563 70.445313 0 38.917969 31.546876 70.464844 70.464844 70.464844h199.011719c30.582031 0 55.378906-24.792969 55.378906-55.375-.003906-29.9375-23.757812-54.308594-53.445312-55.332031zm0 0" fill="#a09d9c"/><path d="m446.457031 435.945312c0 30.585938-24.796875 55.382813-55.382812 55.382813h-4.289063c4.015625-7.664063 6.289063-16.394531 6.289063-25.644531 0-29.933594-23.757813-54.308594-53.445313-55.332032-3.304687-54.625-48.652344-97.914062-104.113281-97.914062-7.480469 0-14.769531.789062-21.796875 2.285156 18.972656-19.730468 45.640625-32.011718 75.179688-32.011718 55.460937 0 100.808593 43.277343 104.113281 97.914062 29.691406 1.011719 53.445312 25.386719 53.445312 55.320312zm0 0" fill="#82807f"/><path d="m45.707031 412.179688c2.367188-39.054688 34.78125-70 74.429688-70 31.976562 0 59.25 20.128906 69.847656 48.40625 27.539063.332031 49.761719 22.746093 49.761719 50.363281 0 27.824219-22.554688 50.378906-50.378906 50.378906-11.644532 0-130.308594 0-142.277344 0-21.863282 0-39.589844-17.726563-39.589844-39.59375 0-21.402344 16.984375-38.824219 38.207031-39.554687zm0 0" fill="#a09d9c"/><path d="m239.746094 440.953125c0 27.582031-22.179688 49.988281-49.683594 50.363281 8.246094-8.972656 13.273438-20.929687 13.273438-34.066406 0-27.613281-22.21875-50.03125-49.761719-50.367188-10.597657-28.269531-37.867188-48.402343-69.847657-48.402343-3.78125 0-7.488281.285156-11.121093.824219 12.902343-10.695313 29.460937-17.121094 47.53125-17.121094 31.980469 0 59.25 20.125 69.847656 48.40625 27.542969.332031 49.761719 22.742187 49.761719 50.363281zm0 0" fill="#82807f"/><path d="m512 349.351562c0-29.253906-21.261719-53.355468-49.503906-57.519531-2.273438-18.433593-9.460938-35.792969-20.976563-50.546875-2.550781-3.265625-7.265625-3.84375-10.527343-1.292968-3.265626 2.546874-3.847657 7.261718-1.296876 10.523437 10.976563 14.0625 17.34375 30.886719 18.421876 48.667969.234374 3.859375 3.363281 6.90625 7.226562 7.039062 23.359375.804688 41.65625 19.75 41.65625 43.128906 0 23.800782-19.363281 43.164063-43.167969 43.164063h-17.308593c-.09375-.09375-.179688-.195313-.269532-.292969-9.824218-10.144531-22.539062-16.585937-36.335937-18.519531-5.546875-46.710937-39.855469-84.304687-84.277344-95.253906l56.257813-61.046875c12.691406 1.65625 24.613281 5.976562 35.472656 12.863281 1.246094.792969 2.636718 1.167969 4.007812 1.167969 2.484375 0 4.914063-1.230469 6.34375-3.484375 2.21875-3.496094 1.179688-8.132813-2.316406-10.351563-9.652344-6.121094-20.371094-10.597656-31.503906-13.21875l12.332031-13.382812c.082031-.089844.164063-.183594.242187-.277344 3.695313-4.429688 4.472657-10.429688 2.027344-15.652344-2.449218-5.226562-7.550781-8.472656-13.320312-8.472656h-9.355469l27.253906-62.734375c1.980469-4.5625 1.535157-9.769531-1.191406-13.925781s-7.324219-6.640625-12.296875-6.640625h-13.765625l27.253906-62.726563c1.980469-4.5625 1.535157-9.765625-1.191406-13.925781s-7.324219-6.640625-12.296875-6.640625h-105.371094c-5.855468 0-11.152344 3.472656-13.488281 8.84375l-7.929687 18.246094c-1.648438 3.800781.09375 8.21875 3.890624 9.871094 3.804688 1.648437 8.21875-.09375 9.871094-3.890626l7.847656-18.070312h40.828126l-27.660157 63.664062c-1.890625 4.355469-1.46875 9.324219 1.136719 13.292969s6.992188 6.339844 11.738281 6.339844h14.777344l-27.652344 63.65625c-1.890625 4.355469-1.46875 9.324219 1.136719 13.292969 2.605469 3.972656 6.992188 6.339844 11.738281 6.339844h10.132813l-56.191406 60.980468 9.472656-36.945312c.574218-2.246094.078125-4.628906-1.339844-6.460938-1.421875-1.828125-3.609375-2.902344-5.925781-2.902344h-24.757813l31.636719-72.800781c1.007813-2.320312.777344-4.988281-.609375-7.101562-1.382812-2.117188-3.742188-3.390625-6.269531-3.390625h-24.757813l20.523438-47.234375c1.652344-3.800781-.089844-8.21875-3.890625-9.867188-3.800781-1.652343-8.21875.089844-9.867188 3.890625l-12.238281 28.160156c-1.148438-.042968-2.300781-.070312-3.449219-.070312-44.824219 0-82.402343 33.410156-88.226562 77.171875-24.246094 3.96875-42.398438 24.824219-42.398438 50.082031 0 12.050782 4.296875 23.621094 11.964844 32.71875-6.328125 7.386719-11.625 15.746094-15.597656 24.894532-16.464844 1.378906-31.75 8.507812-43.484375 20.371093-12.941406 13.085938-20.070313 30.429688-20.070313 48.832031 0 13.765626 3.980469 26.949219 11.527344 38.324219-3.863281 7.75-6.546875 16.199219-7.785156 25.128907-22.253907 3.871093-38.855469 23.105468-38.855469 46.367187 0 25.96875 21.125 47.09375 47.089844 47.09375h343.988281c34.667969 0 62.875-28.207031 62.875-62.878906 0-10.027344-2.355469-19.714844-6.785156-28.433594h6.664062c32.074219 0 58.167969-26.09375 58.167969-58.164063zm-179.679688-158.359374c.082032-.085938.160157-.179688.238282-.269532 3.703125-4.433594 4.484375-10.429687 2.039062-15.65625-2.441406-5.230468-7.550781-8.476562-13.328125-8.476562h-9.347656l27.253906-62.734375c1.980469-4.558594 1.535157-9.761719-1.191406-13.917969-2.730469-4.15625-7.328125-6.640625-12.304687-6.640625h-13.757813l27.253906-62.730469c.777344-1.792968 1.175781-3.679687 1.214844-5.566406h48.75l-31.628906 72.804688c-1.007813 2.316406-.777344 4.988281.605469 7.101562 1.386718 2.113281 3.746093 3.386719 6.273437 3.386719h24.75l-31.628906 72.8125c-1.007813 2.316406-.777344 4.988281.605469 7.101562 1.390624 2.113281 3.746093 3.386719 6.273437 3.386719h20.109375l-86.605469 93.980469c-2.96875-.238281-5.96875-.367188-8.992187-.367188-11.765625 0-23.28125 1.816407-34.246094 5.339844l1.875-7.308594zm-180.496093-11.636719c3.867187-.132813 6.996093-3.183594 7.230469-7.042969 2.296874-37.929688 33.121093-67.847656 70.804687-69.394531l-1.949219 4.484375c-1.980468 4.558594-1.535156 9.765625 1.191406 13.921875 2.726563 4.160156 7.324219 6.640625 12.296876 6.640625h13.769531l-27.253907 62.726562c-1.984374 4.5625-1.539062 9.769532 1.1875 13.925782 2.726563 4.160156 7.324219 6.644531 12.296876 6.644531h15.542968l-5.867187 22.882812c-17.433594-13.746093-38.878907-21.21875-61.335938-21.21875-24.222656 0-47.121093 8.984375-64.816406 24.222657-4.890625-6.25-7.617187-13.996094-7.617187-22.050782-.003907-19.378906 15.160156-35.078125 34.519531-35.742187zm-101.710938 162.558593c0-29.664062 24.132813-54.089843 53.800781-54.449218 3.089844-.035156 5.84375-1.96875 6.929688-4.863282 12.257812-32.707031 43.964844-54.675781 78.894531-54.675781 21.332031 0 41.570313 7.960938 57.179688 22.414063l-4.445313 17.347656c-.003906.007812-.007812.019531-.007812.03125l-5.15625 20.097656c-4.402344 2.296875-8.683594 4.882813-12.796875 7.785156-17.109375 12.074219-30.332031 28.433594-38.476563 47.539063-7.351562.558594-14.523437 2.152344-21.40625 4.742187-4.058594-2.621093-8.34375-4.894531-12.808594-6.777343l22.769532-22.769531c2.144531-2.144532 2.785156-5.371094 1.625-8.171876-1.160156-2.804687-3.894532-4.628906-6.929688-4.628906h-12.113281l7.808594-7.808594c2.929687-2.929687 2.929687-7.679687 0-10.605468-2.929688-2.929688-7.679688-2.929688-10.609375 0l-20.605469 20.609375c-2.148437 2.144531-2.789063 5.371093-1.625 8.171875 1.15625 2.804687 3.894531 4.632812 6.925781 4.632812h12.113282l-15.632813 15.628906c-5.023437-.96875-10.175781-1.484374-15.40625-1.484374-26.003906 0-49.351563 12.203124-64.4375 31.292968-3.671875-7.429687-5.589844-15.601562-5.589844-24.058594zm340.964844 141.914063h-162.773437c6.320312-5.753906 11.410156-12.960937 14.761718-21.285156 1.546875-3.839844-.316406-8.210938-4.15625-9.757813s-8.210937.316406-9.761718 4.15625c-6.570313 16.332032-22.1875 26.882813-39.78125 26.882813h-142.277344c-17.695313.003906-32.089844-14.394531-32.089844-32.089844 0-17.378906 13.601562-31.460937 30.964844-32.058594 3.867187-.132812 6.996094-3.183593 7.230468-7.042969 2.136719-35.300781 31.542969-62.953124 66.941407-62.953124 27.816406 0 53.0625 17.5 62.828125 43.539062 1.082031 2.898438 3.835937 4.832031 6.929687 4.867188 18.796875.226562 35.527344 13 40.691407 31.058593 1.140624 3.980469 5.296874 6.292969 9.273437 5.148438 3.980469-1.136719 6.285156-5.289063 5.148437-9.273438-6.503906-22.75-26.609374-39.285156-49.878906-41.644531-4.039062-9.054688-9.652344-17.15625-16.429687-24.035156 4.113281-.886719 8.320312-1.371094 12.59375-1.421875 3.09375-.039063 5.847656-1.972657 6.929687-4.867188 14.089844-37.589843 50.53125-62.84375 90.679688-62.84375 51.097656 0 93.539062 39.914063 96.621094 90.867188.234374 3.859375 3.363281 6.910156 7.230468 7.042969 13.679688.46875 25.792969 6.554687 34.179688 16.007812.335937.507812.730468.96875 1.175781 1.382812 6.789063 8.261719 10.847656 18.859376 10.847656 30.441407-.003906 26.398437-21.480469 47.878906-47.878906 47.878906zm0 0"/><path d="m368.039062 352.847656c-1.644531-3.800781-6.054687-5.550781-9.859374-3.90625-3.804688 1.644532-5.550782 6.058594-3.90625 9.863282 1.605468 3.703124 2.898437 7.574218 3.839843 11.503906.828125 3.4375 3.898438 5.746094 7.285157 5.746094.582031 0 1.171874-.066407 1.761718-.207032 4.027344-.96875 6.507813-5.019531 5.539063-9.046875-1.148438-4.765625-2.714844-9.460937-4.660157-13.953125zm0 0"/><path d="m288.902344 300.832031c-4.144532 0-7.5 3.355469-7.5 7.5 0 4.140625 3.355468 7.5 7.5 7.5 19.546875 0 37.792968 7.792969 51.378906 21.945313 1.472656 1.535156 3.441406 2.308594 5.410156 2.308594 1.871094 0 3.738282-.695313 5.195313-2.089844 2.988281-2.867188 3.085937-7.617188.214843-10.605469-16.4375-17.125-38.527343-26.558594-62.199218-26.558594zm0 0"/><path d="m171.351562 70.835938h.105469c4.140625 0 7.5-3.359376 7.5-7.5 0-4.144532-3.359375-7.5-7.5-7.5h-.105469c-4.144531 0-7.5 3.355468-7.5 7.5 0 4.140624 3.355469 7.5 7.5 7.5zm0 0"/><path d="m460.933594 185.09375c-.011719 0-.023438 0-.035156 0-4.125 0-7.480469 3.332031-7.5 7.464844-.019532 4.140625 3.324218 7.515625 7.464843 7.535156h.105469.035156c4.125 0 7.480469-3.335938 7.5-7.464844.019532-4.144531-3.320312-7.519531-7.464844-7.535156zm0 0"/><path d="m72.519531 236.941406h.101563.039062c4.125 0 7.476563-3.335937 7.496094-7.464844.019531-4.140624-3.320312-7.515624-7.464844-7.535156h-.101562c-.011719 0-.023438 0-.039063 0-4.125 0-7.476562 3.332032-7.496093 7.464844-.019532 4.140625 3.320312 7.515625 7.464843 7.535156zm0 0"/><path d="m82.585938 168.566406c1.464843 1.464844 3.382812 2.195313 5.304687 2.195313 1.917969 0 3.839844-.730469 5.304687-2.195313l30.21875-30.21875c2.148438-2.148437 2.789063-5.371094 1.625-8.175781-1.160156-2.800781-3.894531-4.628906-6.925781-4.628906h-12.117187l7.808594-7.808594c2.929687-2.925781 2.929687-7.675781 0-10.605469-2.929688-2.929687-7.675782-2.929687-10.605469 0l-20.609375 20.609375c-2.144532 2.144531-2.789063 5.371094-1.625 8.175781 1.160156 2.800782 3.894531 4.628907 6.925781 4.628907h12.117187l-17.417968 17.417969c-2.933594 2.925781-2.933594 7.675781-.003906 10.605468zm0 0"/><path d="m440.484375 143.152344c1.464844 1.464844 3.382813 2.195312 5.304687 2.195312 1.917969 0 3.839844-.730468 5.304688-2.195312l30.21875-30.222656c2.144531-2.144532 2.789062-5.371094 1.625-8.171876-1.160156-2.804687-3.894531-4.628906-6.925781-4.628906h-12.117188l7.808594-7.808594c2.929687-2.929687 2.929687-7.675781 0-10.605468-2.929687-2.929688-7.675781-2.929688-10.605469 0l-20.609375 20.609375c-2.148437 2.144531-2.789062 5.371093-1.625 8.171875 1.160157 2.804687 3.894531 4.632812 6.925781 4.632812h12.113282l-17.417969 17.414063c-2.929687 2.929687-2.929687 7.679687 0 10.609375zm0 0"/></svg>